HIERARCHY
ROOT Hips
{
	OFFSET 0.000000 0.000000 0.000000
	CHANNELS 6 Xposition Yposition Zposition Zrotation Yrotation Xrotation 
	JOINT LHipJoint
	{
		OFFSET 0.000000 0.000000 0.000000
		CHANNELS 3 Zrotation Yrotation Xrotation
		JOINT LeftUpLeg
		{
			OFFSET 1.363060 -1.794630 0.839290
			CHANNELS 3 Zrotation Yrotation Xrotation
			JOINT LeftLeg
			{
				OFFSET 2.448110 -6.726130 0.000000
				CHANNELS 3 Zrotation Yrotation Xrotation
				JOINT LeftFoot
				{
					OFFSET 2.562200 -7.039590 0.000000
					CHANNELS 3 Zrotation Yrotation Xrotation
					JOINT LeftToeBase
					{
						OFFSET 0.157640 -0.433110 2.322550
						CHANNELS 3 Zrotation Yrotation Xrotation
						End Site
						{
							OFFSET 0.000000 0.000000 0.000000
						}
					}
				}
			}
		}
	}
	JOINT RHipJoint
	{
		OFFSET 0.000000 0.000000 0.000000
		CHANNELS 3 Zrotation Yrotation Xrotation
		JOINT RightUpLeg
		{
			OFFSET -1.305520 -1.794630 0.839290
			CHANNELS 3 Zrotation Yrotation Xrotation
			JOINT RightLeg
			{
				OFFSET -2.542530 -6.985550 0.000000
				CHANNELS 3 Zrotation Yrotation Xrotation
				JOINT RightFoot
				{
					OFFSET -2.568260 -7.056230 0.000000
					CHANNELS 3 Zrotation Yrotation Xrotation
					JOINT RightToeBase
					{
						OFFSET -0.164730 -0.452590 2.363150
						CHANNELS 3 Zrotation Yrotation Xrotation
						End Site
						{
							OFFSET 0.000000 0.000000 0.000000
						}
					}
				}
			}
		}
	}
	JOINT LowerBack
	{
		OFFSET 0.000000 0.000000 0.000000
		CHANNELS 3 Zrotation Yrotation Xrotation
		JOINT Spine
		{
			OFFSET 0.028270 2.035590 -0.193380
			CHANNELS 3 Zrotation Yrotation Xrotation
			JOINT Spine1
			{
				OFFSET 0.056720 2.048850 -0.042750
				CHANNELS 3 Zrotation Yrotation Xrotation
				JOINT Neck
				{
					OFFSET 0.000000 0.000000 0.000000
					CHANNELS 3 Zrotation Yrotation Xrotation
					JOINT Neck1
					{
						OFFSET -0.054170 1.746240 0.172020
						CHANNELS 3 Zrotation Yrotation Xrotation
						JOINT Head
						{
							OFFSET 0.104070 1.761360 -0.123970
							CHANNELS 3 Zrotation Yrotation Xrotation
							End Site
							{
								OFFSET 0.000000 0.000000 0.000000
							}
						}
					}
				}
				JOINT LeftShoulder
				{
					OFFSET 0.000000 0.000000 0.000000
					CHANNELS 3 Zrotation Yrotation Xrotation
					JOINT LeftArm
					{
						OFFSET 3.362410 1.200890 -0.311210
						CHANNELS 3 Zrotation Yrotation Xrotation
						JOINT LeftForeArm
						{
							OFFSET 4.983000 -0.000000 -0.000000
							CHANNELS 3 Zrotation Yrotation Xrotation
							JOINT LeftHand
							{
								OFFSET 3.483560 -0.000000 -0.000000
								CHANNELS 3 Zrotation Yrotation Xrotation
								JOINT LeftFingerBase
								{
									OFFSET 0.000000 0.000000 0.000000
									CHANNELS 3 Zrotation Yrotation Xrotation
									JOINT LeftHandIndex1
									{
										OFFSET 0.715260 -0.000000 -0.000000
										CHANNELS 3 Zrotation Yrotation Xrotation
										End Site
										{
											OFFSET 0.000000 0.000000 0.000000
										}
									}
								}
								JOINT LThumb
								{
									OFFSET 0.000000 0.000000 0.000000
									CHANNELS 3 Zrotation Yrotation Xrotation
									End Site
									{
										OFFSET 0.000000 0.000000 0.000000
									}
								}
							}
						}
					}
				}
				JOINT RightShoulder
				{
					OFFSET 0.000000 0.000000 0.000000
					CHANNELS 3 Zrotation Yrotation Xrotation
					JOINT RightArm
					{
						OFFSET -3.136600 1.374050 -0.404650
						CHANNELS 3 Zrotation Yrotation Xrotation
						JOINT RightForeArm
						{
							OFFSET -5.241900 -0.000000 -0.000000
							CHANNELS 3 Zrotation Yrotation Xrotation
							JOINT RightHand
							{
								OFFSET -3.444170 -0.000000 -0.000000
								CHANNELS 3 Zrotation Yrotation Xrotation
								JOINT RightFingerBase
								{
									OFFSET 0.000000 0.000000 0.000000
									CHANNELS 3 Zrotation Yrotation Xrotation
									JOINT RightHandIndex1
									{
										OFFSET -0.622530 -0.000000 -0.000000
										CHANNELS 3 Zrotation Yrotation Xrotation
										End Site
										{
											OFFSET 0.000000 0.000000 0.000000
										}
									}
								}
								JOINT RThumb
								{
									OFFSET 0.000000 0.000000 0.000000
									CHANNELS 3 Zrotation Yrotation Xrotation
									End Site
									{
										OFFSET 0.000000 0.000000 0.000000
									}
								}
							}
						}
					}
				}
			}
		}
	}
}
MOTION
Frames: 11
Frame Time: 0.008333
29.200457 17.071910 -11.525564 -171.698645 -73.090237 -176.847558 -4.699067 -6.094090 0.367795 -22.521875 23.115581 -20.132111 7.379295 17.885478 53.301032 3.706785 -3.251616 16.108654 0.686000 -5.295400 -14.752900 2.508887 6.188398 -4.612926 -2.126755 14.970706 -38.617510 -6.231073 -17.234821 48.252391 0.257730 -4.184687 3.492423 -0.011600 -0.694100 1.907400 11.168282 -4.144875 5.265377 0.818793 -5.150539 -1.734460 -5.877089 -2.775131 -0.134617 0.983851 9.933537 -4.986774 -3.164026 12.988650 -8.757867 -2.489400 6.035000 -3.756200 -7.953814 -8.400799 2.477358 -59.846774 -21.645519 76.212460 53.049689 -49.869067 -27.052352 1.910069 0.246907 5.112645 29.554536 -30.370412 -15.325100 -7.125000 0.000000 0.000000 -2.216900 -4.680600 2.392100 10.256315 8.211949 1.491231 67.421340 -3.064947 45.256351 -59.017874 53.413586 -33.070747 1.156667 -0.030326 -14.645401 -23.837454 -10.392966 4.598100 7.125000 0.000000 0.000000 1.822400 -40.928700 0.183000 
29.035077 17.046272 -11.565506 -172.770771 -72.752778 -175.641233 -4.418393 -6.067152 0.216373 -22.400188 24.027225 -21.570771 8.380190 18.405540 56.203345 3.311295 -2.395408 16.177428 0.929600 -6.142100 -17.197100 2.493974 6.142400 -4.560545 -2.880247 15.253769 -38.135966 -6.189335 -17.177669 48.058712 0.160091 -3.920929 3.587653 -0.052600 1.479500 -4.069300 11.461135 -4.227978 5.517750 0.854083 -5.244164 -1.612745 -5.952644 -2.816166 -0.015192 1.249231 10.117871 -4.893513 -3.532011 13.237892 -8.777776 -2.678600 6.150100 -3.720000 -8.043797 -8.422798 2.471113 -59.346861 -21.503963 75.942429 49.882715 -48.638718 -24.633015 1.884125 0.310230 4.840698 28.769768 -29.743054 -14.609000 -7.125000 0.000000 0.000000 -2.531000 -3.843400 2.697500 10.349569 8.238180 1.483538 67.235827 -3.047073 44.010318 -54.790184 52.230950 -29.849772 1.217673 -0.003933 -13.864590 -24.194759 -11.106551 5.024600 7.125000 0.000000 0.000000 1.518600 -41.767400 0.121100 
28.869146 17.009301 -11.606328 -173.736814 -72.372830 -174.532005 -4.141571 -6.026414 0.071292 -22.199481 24.926534 -22.969834 9.426480 18.875831 59.140161 2.883214 -1.450357 16.012440 1.200900 -6.952900 -19.575900 2.467187 6.091453 -4.514852 -3.489990 15.307437 -37.748889 -6.167787 -17.116250 47.949403 -0.051353 -3.288711 3.373586 -0.398100 4.050900 -11.219900 11.734696 -4.302003 5.754986 0.880038 -5.328926 -1.489295 -6.033031 -2.851550 0.109676 1.478837 10.289505 -4.723640 -3.867034 13.472131 -8.822757 -2.854200 6.260100 -3.717700 -8.152226 -8.446154 2.464020 -58.659028 -21.203541 75.520623 47.006992 -47.383403 -22.512664 1.847213 0.376247 4.408588 28.258248 -29.181182 -14.104500 -7.125000 0.000000 0.000000 -2.704700 -3.155400 2.852500 10.452474 8.259903 1.479335 66.999421 -2.958179 42.804822 -50.741263 50.875331 -26.819976 1.270892 0.025230 -13.217948 -24.352113 -11.635325 5.330300 7.125000 0.000000 0.000000 1.381600 -42.393000 0.088900 
28.702006 16.962647 -11.646601 -174.620360 -72.003935 -173.504790 -3.871775 -5.974023 -0.064850 -21.896260 25.775607 -24.293226 10.490922 19.285121 62.074714 2.477806 -0.569259 15.699562 1.443000 -7.594200 -21.488300 2.427906 6.032931 -4.476680 -3.945305 15.080222 -37.457643 -6.176459 -17.051816 47.942712 -0.378039 -2.291979 2.801121 -1.049300 6.514000 -18.283400 12.004756 -4.382554 5.982750 0.896745 -5.423919 -1.366661 -6.125316 -2.890979 0.230585 1.635725 10.456294 -4.505830 -4.138377 13.702923 -8.865260 -2.994300 6.373200 -3.736600 -8.279735 -8.469177 2.456322 -57.825950 -20.708941 74.898623 44.381500 -46.131995 -20.656786 1.799399 0.443735 3.883618 27.973885 -28.698920 -13.779600 -7.125000 0.000000 0.000000 -2.761800 -2.614700 2.888200 10.564414 8.275593 1.477555 66.696913 -2.823974 41.637523 -46.907600 49.375249 -24.012117 1.315877 0.055252 -12.683728 -24.330025 -11.962118 5.501800 7.125000 0.000000 0.000000 1.393400 -42.783500 0.076200 
28.533544 16.907740 -11.684892 -175.467219 -71.637132 -172.517143 -3.612050 -5.913327 -0.190886 -21.499054 26.571766 -25.541861 11.545053 19.626029 64.970604 2.160569 0.084001 15.392306 1.613500 -8.009900 -22.744200 2.375613 5.967426 -4.447830 -4.249933 14.574243 -37.278993 -6.227130 -16.991846 48.055295 -0.798521 -1.019155 1.905122 -1.809400 8.457300 -24.111800 12.260048 -4.464945 6.217705 0.902524 -5.520428 -1.245120 -6.229654 -2.930413 0.344150 1.801737 10.605089 -4.286092 -4.422729 13.913603 -8.879751 -3.138000 6.479600 -3.743100 -8.423024 -8.485057 2.447780 -56.889347 -20.015418 74.049194 41.961499 -44.897499 -19.022070 1.739385 0.513250 3.289703 27.856034 -28.248200 -13.573300 -7.125000 0.000000 0.000000 -2.725100 -2.152800 2.828700 10.687722 8.289223 1.478423 66.319259 -2.661250 40.486231 -43.296540 47.756343 -21.437711 1.356390 0.084123 -12.202445 -24.223209 -12.131043 5.578700 7.125000 0.000000 0.000000 1.470000 -42.993000 0.072800 
28.363763 16.845681 -11.719993 -176.283557 -71.222756 -171.553584 -3.365485 -5.848147 -0.306875 -21.027260 27.337149 -26.746021 12.568049 19.894928 67.798287 1.975864 0.405957 15.215416 1.686700 -8.180500 -23.263700 2.309335 5.896938 -4.429588 -4.412083 13.832040 -37.249593 -6.329362 -16.948233 48.300848 -1.274617 0.392970 0.785693 -2.459300 9.763400 -28.214000 12.491279 -4.527675 6.480336 0.895291 -5.587250 -1.126302 -6.341370 -2.954857 0.439252 1.958193 10.743477 -4.042308 -4.711044 14.112168 -8.910492 -3.282900 6.581400 -3.762300 -8.581760 -8.493935 2.440934 -55.877250 -19.131681 72.980517 39.706306 -43.682433 -17.565806 1.663607 0.586230 2.598268 27.863247 -27.765884 -13.433400 -7.125000 0.000000 0.000000 -2.604400 -1.690500 2.682900 10.822432 8.298014 1.480803 65.860406 -2.504806 39.314416 -39.904521 46.044631 -19.099322 1.395637 0.109681 -11.694763 -24.108328 -12.184554 5.598900 7.125000 0.000000 0.000000 1.542800 -43.074200 0.073300 
28.192881 16.778011 -11.750692 -177.061956 -70.712667 -170.606926 -3.134162 -5.781587 -0.413548 -20.501827 28.087540 -27.947994 13.540508 20.090179 70.536425 1.981852 0.243026 15.258533 1.693600 -8.196500 -23.312400 2.227006 5.823502 -4.423230 -4.457042 12.913474 -37.407829 -6.490282 -16.932118 48.695170 -1.753687 1.780236 -0.444630 -2.922000 10.567800 -30.835600 12.687669 -4.551696 6.783607 0.873321 -5.596636 -1.013056 -6.457403 -2.951509 0.508046 2.123945 10.867305 -3.769118 -5.021182 14.291958 -8.973050 -3.440900 6.674300 -3.798700 -8.755087 -8.494344 2.437111 -54.804217 -18.079230 71.707504 37.560207 -42.470659 -16.239189 1.568550 0.663767 1.814733 27.986200 -27.210152 -13.336000 -7.125000 0.000000 0.000000 -2.395800 -1.182000 2.446900 10.969285 8.301510 1.483380 65.313559 -2.409785 38.100752 -36.755548 44.287868 -17.018368 1.440014 0.133478 -11.118600 -24.087979 -12.224753 5.637000 7.125000 0.000000 0.000000 1.524100 -43.150500 0.069600 
28.021008 16.707149 -11.776110 -177.772291 -70.072552 -169.694700 -2.920994 -5.714772 -0.513838 -19.941231 28.839407 -29.203120 14.454734 20.212981 73.156203 2.134310 -0.291139 15.573698 1.692800 -8.194500 -23.306500 2.127328 5.749355 -4.427946 -4.429250 11.914953 -37.774553 -6.711208 -16.953023 49.250620 -2.212095 3.084157 -1.669963 -3.208300 11.024900 -32.363800 12.839655 -4.519276 7.146536 0.837989 -5.522211 -0.906098 -6.568308 -2.908340 0.546110 2.314867 10.973516 -3.480077 -5.364826 14.448027 -9.077172 -3.619800 6.754100 -3.851300 -8.941227 -8.485773 2.437468 -53.691807 -16.903847 70.266945 35.466254 -41.232786 -14.993841 1.448717 0.748803 0.899306 28.237437 -26.555385 -13.276800 -7.125000 0.000000 0.000000 -2.084700 -0.605500 2.108000 11.129010 8.299846 1.485392 64.676158 -2.411757 36.816257 -33.848634 42.522746 -15.190685 1.493507 0.161889 -10.464086 -24.163446 -12.360186 5.747700 7.125000 0.000000 0.000000 1.421400 -43.346900 0.058000 
27.849796 16.634527 -11.796026 -178.343085 -69.287205 -168.873975 -2.726379 -5.648037 -0.608468 -19.330783 29.599674 -30.509864 15.300660 20.266304 75.648985 2.449103 -1.281210 16.093221 1.715400 -8.246400 -23.464900 2.010537 5.677614 -4.442479 -4.365270 10.941406 -38.366457 -6.989257 -17.017446 49.973044 -2.649629 4.333457 -2.780188 -3.373800 11.277000 -33.219700 12.952698 -4.433989 7.587866 0.797762 -5.366116 -0.803186 -6.655952 -2.828029 0.548520 2.497682 11.058538 -3.182600 -5.964255 14.552346 -9.574495 -3.530000 6.831600 -3.599900 -9.138897 -8.468975 2.444334 -52.561325 -15.650280 68.645893 33.373968 -39.935071 -13.792696 1.297561 0.843446 -0.218438 28.602684 -25.788042 -13.239000 -7.125000 0.000000 0.000000 -1.673300 0.056000 1.672400 11.304962 8.293036 1.489978 63.929552 -2.513378 35.483311 -31.162946 40.770553 -13.589412 1.555974 0.195383 -9.741043 -24.330771 -12.575554 5.925300 7.125000 0.000000 0.000000 1.236300 -43.648200 0.041300 
27.679575 16.562125 -11.810440 -178.711374 -68.381380 -168.203356 -2.549209 -5.580679 -0.703218 -18.634386 30.356300 -31.872083 16.075686 20.252973 78.003184 2.882669 -2.654869 16.752562 1.778900 -8.389500 -23.903500 1.880675 5.608506 -4.464230 -4.283731 10.054945 -39.161881 -7.315824 -17.122784 50.847108 -3.063367 5.554271 -3.703908 -3.470500 11.420300 -33.710900 13.068457 -4.306727 8.085652 0.745830 -5.147635 -0.686513 -6.761592 -2.716257 0.569207 2.696109 11.130562 -2.965296 -6.374068 14.659539 -9.757808 -3.702900 6.888600 -3.646700 -9.353602 -8.443952 2.454714 -51.355840 -14.374420 66.834570 31.272600 -38.562683 -12.627220 1.107111 0.944854 -1.576354 29.067366 -24.864748 -13.189500 -7.125000 0.000000 0.000000 -1.158500 0.855400 1.141300 11.493142 8.281409 1.494299 63.102242 -2.678937 34.118049 -28.684465 39.049126 -12.184158 1.620384 0.231539 -8.995669 -24.485783 -12.775734 6.097500 7.125000 0.000000 0.000000 1.059100 -43.938100 0.027800 
27.511224 16.489283 -11.820013 -178.841512 -67.416645 -167.724175 -2.388114 -5.510675 -0.800740 -17.794981 31.080291 -33.223978 16.782128 20.180293 80.219337 3.395070 -4.354470 17.464345 1.884000 -8.620100 -24.613900 1.743844 5.540657 -4.488429 -4.188689 9.275938 -40.112461 -7.680815 -17.260379 51.846264 -3.461532 6.801795 -4.416460 -3.506500 11.473000 -33.892400 13.226430 -4.150992 8.617632 0.684998 -4.889830 -0.544063 -6.900393 -2.581889 0.636066 2.891546 11.186828 -2.814291 -6.789145 14.745144 -9.978267 -3.872000 6.933200 -3.697100 -9.586675 -8.410155 2.471567 -50.060863 -13.096783 64.838353 29.175548 -37.126962 -11.508221 0.873037 1.045557 -3.145134 29.612683 -23.791589 -13.110700 -7.125000 0.000000 0.000000 -0.548400 1.795900 0.531000 11.695265 8.263459 1.501070 62.196863 -2.900269 32.728528 -26.388963 37.367327 -10.946596 1.684787 0.271839 -8.300515 -24.595433 -12.932029 6.241200 7.125000 0.000000 0.000000 0.918500 -44.180900 0.018600 
